# xmcd
#
# Track frame offsets:
#	150
#	18095
#	38045
#	56997
#	78617
#	98852
#	111275
#	127987
#	149332
#	170015
#
# Disc length: 2493 seconds
#
# Revision: 0
# Processed by: cddbd v1.4PL0 Copyright (c) Steve Scherf et al.
# Submitted via: EasyCDDAExtractor 4.6.0.1
#
DISCID=8609bb0a
DTITLE=Elwood - The Parlance Of Our Time
DYEAR=2000
DGENRE=Rap
TTITLE0=Sundown
TTITLE1=Slow
TTITLE2=Red Wagon
TTITLE3=Picture Of You
TTITLE4=Forty Five
TTITLE5=Bush
TTITLE6=Peaches
TTITLE7=Dive
TTITLE8=Love Hook
TTITLE9=Stockboy
EXTD=
EXTT0=
EXTT1=
EXTT2=
EXTT3=
EXTT4=
EXTT5=
EXTT6=
EXTT7=
EXTT8=
EXTT9=
PLAYORDER=
